<svg width="24" height="24" viewBox="0 0 24 24" fill="none" xmlns="http://www.w3.org/2000/svg">
<g id="Stockholm-icons / Shopping / Money">
<path id="Combined Shape Copy" opacity="0.3" fill-rule="evenodd" clip-rule="evenodd" d="M3.87663 3.74567C3.34317 3.60272 2.79483 3.91931 2.65189 4.45277L0.0636961 14.112C-0.0792456 14.6455 0.237337 15.1938 0.770803 15.3368L19.1234 20.2543C19.6569 20.3973 20.2052 20.0807 20.3481 19.5472L22.9363 9.88797C23.0793 9.35451 22.7627 8.80617 22.2292 8.66323L3.87663 3.74567ZM15.3637 13.0353C14.7919 15.1691 12.5986 16.4355 10.4647 15.8637C8.33087 15.2919 7.06454 13.0986 7.63631 10.9647C8.20808 8.83086 10.4014 7.56453 12.5353 8.1363C14.6692 8.70807 15.9355 10.9014 15.3637 13.0353Z" fill="#565656"/>
<path id="Combined Shape" fill-rule="evenodd" clip-rule="evenodd" d="M2 6C1.44772 6 1 6.44772 1 7V17C1 17.5523 1.44772 18 2 18H21C21.5523 18 22 17.5523 22 17V7C22 6.44772 21.5523 6 21 6H2ZM15.5 12C15.5 14.2091 13.7091 16 11.5 16C9.29086 16 7.5 14.2091 7.5 12C7.5 9.79086 9.29086 8 11.5 8C13.7091 8 15.5 9.79086 15.5 12ZM11.5 14C12.6046 14 13.5 13.1046 13.5 12C13.5 10.8954 12.6046 10 11.5 10C10.3954 10 9.5 10.8954 9.5 12C9.5 13.1046 10.3954 14 11.5 14Z" fill="#565656"/>
</g>
</svg>
